inDegrees=no
num_controls=7
num_derivatives=13
num_iterations=111
num_multipliers=7
num_parameters=0
num_slacks=7
num_states=26
objective=6.001508
objective_accelerations=0.360680
objective_balance=0.069885
objective_effort=0.414157
objective_height=5.112192
objective_ligament=0.044595
solver_duration=956.659699
status=Solve_Succeeded
success=true
DataType=double
version=3
OpenSimVersion=4.4-2022-07-23-0e9fedc
endheader
time	/jointset/ground_pelvis/pelvis_tilt/value	/jointset/ground_pelvis/pelvis_tx/value	/jointset/ground_pelvis/pelvis_ty/value	/jointset/hip_r/hip_flexion_r/value	/jointset/hip_r/hip_adduction_r/value	/jointset/hip_r/hip_rotation_r/value	/jointset/back/lumbar_extension/value	/jointset/patellofemoral_r/patellar_flexion_r/value	/jointset/knee_r/knee_flexion_r/value	/jointset/knee_r/knee_adduction_r/value	/jointset/knee_r/knee_rotation_r/value	/jointset/ankle_r/ankle_angle_r/value	/jointset/subtalar_r/subtalar_angle_r/value	/jointset/ground_pelvis/pelvis_tilt/speed	/jointset/ground_pelvis/pelvis_tx/speed	/jointset/ground_pelvis/pelvis_ty/speed	/jointset/hip_r/hip_flexion_r/speed	/jointset/hip_r/hip_adduction_r/speed	/jointset/hip_r/hip_rotation_r/speed	/jointset/back/lumbar_extension/speed	/jointset/patellofemoral_r/patellar_flexion_r/speed	/jointset/knee_r/knee_flexion_r/speed	/jointset/knee_r/knee_adduction_r/speed	/jointset/knee_r/knee_rotation_r/speed	/jointset/ankle_r/ankle_angle_r/speed	/jointset/subtalar_r/subtalar_angle_r/speed	/forceset/tau_hip_flexion_r	/forceset/tau_hip_adduction_r	/forceset/tau_hip_rotation_r	/forceset/tau_knee_flexion_r	/forceset/tau_ankle_angle_r	/forceset/tau_subtalar_angle_r	/forceset/tau_lumbar_extension	lambda_cid13_p0	lambda_cid14_p0	lambda_cid14_p1	lambda_cid14_p2	lambda_cid14_p3	lambda_cid14_p4	lambda_cid14_p5	/jointset/ground_pelvis/pelvis_tilt/accel	/jointset/ground_pelvis/pelvis_tx/accel	/jointset/ground_pelvis/pelvis_ty/accel	/jointset/hip_r/hip_flexion_r/accel	/jointset/hip_r/hip_adduction_r/accel	/jointset/hip_r/hip_rotation_r/accel	/jointset/back/lumbar_extension/accel	/jointset/patellofemoral_r/patellar_flexion_r/accel	/jointset/knee_r/knee_flexion_r/accel	/jointset/knee_r/knee_adduction_r/accel	/jointset/knee_r/knee_rotation_r/accel	/jointset/ankle_r/ankle_angle_r/accel	/jointset/subtalar_r/subtalar_angle_r/accel	gamma_cid13_p0	gamma_cid14_p0	gamma_cid14_p1	gamma_cid14_p2	gamma_cid14_p3	gamma_cid14_p4	gamma_cid14_p5
1	-0.1714561167373291	0.05270508846302218	0.7689144392500397	1.024554036479286	-0.2355215349473526	-0.08262342001815594	-0.4361887241056067	1.097103892202767	1.09710389220286	-0.02449731989997658	0.1744659889045411	0.4363230884227284	0.1054302847528149	-7.874683149987905e-05	0.006648721375062575	0.01243900466616203	-0.03896481881592535	0.001975179286438099	-0.01054001247253115	0.01278424677075609	-0.04560892615816634	-0.04560892615816786	-9.59898854892178e-05	-0.0002178955923821445	-0.007624082587579224	0.0006362905664816122	-0.1904001779216059	0.02926463634501235	0.01360473491514629	-0.4225445713756416	-0.05475313342885895	0.005807608295895106	0.2398684757362488	-5.985413536751244	-64.15169215628134	-8.46970774083613	1.535511638648165	14.48430858683141	-766.8237647381583	55.12600539933216	0.9303297513529851	0.1493268763709794	1.139112733895919	-3.834469623954812	0.0875352245451913	-0.4651405585984609	0.616773267958992	-4.06272949949419	-4.0627294994942	0.5871611179719939	-0.005061933849548356	-1.340197179361903	-0.3647502050806521	1.167279807392783e-09	-2.326227601975645e-09	4.430439203681865e-09	6.788417984702301e-09	5.891106713707603e-09	-6.629627727893638e-09	3.944246127721556e-09
1.01	-0.17141147096892	0.0527790310300345	0.7690956572375308	1.023973862981693	-0.2354975269970692	-0.08275159201997144	-0.4360281569971657	1.096444667082167	1.096444667082094	-0.02446827135814599	0.1744635642485314	0.4361796489968867	0.1054181182543399	0.008965497406867329	0.008141637481217604	0.02380518857314835	-0.07704339013468106	0.002825481069049338	-0.015097584603168	0.01944644582259279	-0.0862680431608798	-0.08626804316087858	0.005914741697546802	-0.0002633634801785339	-0.02108232486719708	-0.003077854820406328	-0.1912414861444091	0.02945413141545622	0.01358005773411709	-0.4214731916622637	-0.0563799696338574	0.006009157518058951	0.2406201879552633	-6.021421317187886	-64.686210357283	-8.445459681964939	1.497029662052017	14.8388998184246	-767.2009456091536	55.12875279501023	0.8851119327573204	0.1495514671105175	1.13545873468544	-3.790576873918484	0.08364049437289074	-0.4515440229402635	0.708533854089941	-4.07229497350833	-4.072294973507383	0.609386557762709	-0.003735378922631822	-1.351416634605775	-0.3759833304083623	1.964760780889706e-09	-7.143174075215459e-10	9.603490355986617e-09	1.251713649470806e-08	3.366671504476824e-09	-9.202113618861602e-09	1.014273616409118e-08
1.02	-0.1712776547236099	0.05286795825598492	0.769390554567209	1.023013698573412	-0.2354650434610448	-0.08292543543968445	-0.4357974497719914	1.095377892356918	1.095377892356756	-0.0243788440246093	0.174460795681175	0.4359010713715008	0.1053685629770194	0.01775534855247418	0.009645653162683945	0.03517487310370452	-0.1149630009766679	0.003670296421775972	-0.01967429603956903	0.02681227008618197	-0.127118847077528	-0.1271188470775245	0.01197976845230468	-0.0002866778750957293	-0.03465172244055913	-0.006841465203909242	-0.1920827943664853	0.02964362648596256	0.01355538055402992	-0.4204018119487717	-0.0580068058388969	0.006210706740292172	0.241371900174927	-6.080017234128507	-65.23006313009867	-8.417459159654694	1.451796344228357	15.19561920797867	-767.7414647902938	55.15792295850205	0.8794511328001084	0.1515467914343358	1.139812858609902	-3.802677528601671	0.0864379385680922	-0.4689684197513954	0.757498310308354	-4.101066882280858	-4.101066882280961	0.5980201523164689	-0.0006312352735279019	-1.362428238109007	-0.3746432044032793	2.734002984460308e-09	-8.698089975118657e-11	1.103149066160557e-08	2.075615400001272e-08	3.294564497646306e-09	-1.071117338866848e-08	1.053128783763615e-08
1.03	-0.1710571943029491	0.05297199864618558	0.7697991079902423	1.021675197134827	-0.2354241416273134	-0.08314513780967327	-0.4354896703463365	1.093901774966856	1.093901774966483	-0.02422852191602068	0.1744578881082025	0.4354862930255575	0.1052811501451821	0.02629340185636084	0.01116601043665524	0.04653028044753715	-0.1527014198478079	0.004509220506894284	-0.02426890302870756	0.03485380519003666	-0.1681242383272524	-0.1681242383272529	0.01809053166034497	-0.0002934975780004694	-0.048317755723446	-0.01064627685424882	-0.192527651366984	0.02973591827669293	0.0135440377271264	-0.4192984847591802	-0.05914448058926685	0.006334271945743167	0.241792040601849	-6.161600779575482	-65.59476805282011	-8.396029911612782	1.412259914841834	15.43770993027623	-767.8510247304977	55.15195875987358	0.8344833251145336	0.1528186810233608	1.132572563058077	-3.754043344709372	0.08249729361130025	-0.4551128545082578	0.8440096293745477	-4.103217059384557	-4.103217059384608	0.6184872722101192	-0.0005000992211253285	-1.370762893333368	-0.3841710090869222	3.502957037317376e-09	5.303089377468844e-10	1.242127616266649e-08	2.90207868011878e-08	3.24748124798315e-09	-1.220938187152472e-08	1.086055442584614e-08
1.04	-0.1707526531700814	0.05309135030625665	0.770321049064872	1.019960387651946	-0.2353748750226405	-0.08341086745282066	-0.4350981698657948	1.092015015301643	1.092015015301124	-0.02401691560189204	0.1744549537859621	0.4349344399427383	0.1051555350241007	0.03457149099759326	0.01270790713676273	0.05785240342304724	-0.190224609852453	0.005343250597081613	-0.02887975065837477	0.04355648105192159	-0.2092473020996318	-0.2092473020996358	0.02423660955486567	-0.00029202773779304	-0.0620666698045147	-0.01448192305409087	-0.1929725083669682	0.02982821006747033	0.01353269490096657	-0.4181951575695091	-0.06028215533966916	0.006457837151244238	0.242212181029225	-6.266676666337536	-65.96892346382687	-8.370767097372793	1.365843402371673	15.68224160872347	-768.1255865319087	55.17291945766743	0.8274583002684984	0.1558546766624881	1.133155984945413	-3.759631755303202	0.08545913958173752	-0.4722165478572414	0.8897264619136882	-4.1246013868117	-4.124601386811714	0.6050830896126661	0.001026673349111255	-1.379004397743974	-0.3808101143035174	4.280220684055224e-09	1.194681161505815e-09	1.352102745493286e-08	3.711688765782056e-08	3.106689283413813e-09	-1.370935494755018e-08	1.090562512058385e-08
1.05	-0.1703665648459292	0.0532262290372929	0.7709559953053118	1.017871441581089	-0.2353173052700374	-0.08372279038366742	-0.4346164607522463	1.089716533246919	1.089716533246372	-0.02374367744882688	0.174452085205971	0.4342446949964093	0.104991403865987	0.0426066671427878	0.01427144210208868	0.06912601834577385	-0.2275236965227586	0.006169154678802949	-0.03350718985900141	0.05288656559361173	-0.2504589702419498	-0.2504589702419528	0.03041597601124927	-0.0002808181003882108	-0.07589502715043676	-0.01834908726159379	-0.1931387342713744	0.02983718540893	0.01352845287781798	-0.4168736330548947	-0.06125493350615695	0.006556404569992583	0.2423780167925246	-6.395842237154869	-66.26758145288593	-8.339893466398856	1.314821994781725	15.90853242172314	-767.987682657236	55.17492079475445	0.7856225177041503	0.1571439548544227	1.122837241111357	-3.708910023103276	0.08093211706931228	-0.4583562852498068	0.9698330387243442	-4.120929756156547	-4.12092975615599	0.6251079711412632	0.001308244117693263	-1.386658318623462	-0.3903785968430005	5.057744005601848e-09	1.860524709835398e-09	1.46117151781744e-08	4.520772189118638e-08	2.962968921503657e-09	-1.520938316711217e-08	1.094181469365056e-08
